<svg id="Layer_1" data-name="Layer 1" xmlns="http://www.w3.org/2000/svg" viewBox="0 0 1020 700">
  <defs>
    <style>
      .cls-1 {
        fill: #006800;
      }

      .cls-2 {
        fill: #4f250e;
      }

      .cls-3 {
        fill: #af2c12;
      }

      .cls-4 {
        fill: #dbc91f;
      }
    </style>
  </defs>
  <title>board2</title>
  <g id="game-board">
    <g>
      <rect class="cls-1" x="3.5" y="5.5" width="1013" height="693" rx="35.74" ry="35.74"/>
      <path class="cls-2" d="M980.76,9A32.28,32.28,0,0,1,1013,41.24V662.76A32.28,32.28,0,0,1,980.76,695H39.24A32.28,32.28,0,0,1,7,662.76V41.24A32.28,32.28,0,0,1,39.24,9H980.76m0-7H39.24A39.24,39.24,0,0,0,0,41.24V662.76A39.24,39.24,0,0,0,39.24,702H980.76A39.24,39.24,0,0,0,1020,662.76V41.24A39.24,39.24,0,0,0,980.76,2Z"/>
    </g>
    <g>
      <path class="cls-3" d="M261.76,97.4a50.65,50.65,0,0,1,6.88,6.66c3.42,3.94,4.94,7.07,5.05,10.31a8.48,8.48,0,0,1-3.19,7.22c-2.95,2.55-7.22,2.85-11.19.65l-.09.08c1.79,3.53,2.33,9-2.2,12.94a10.9,10.9,0,0,1-8.36,2.72c-3.8-.44-7.69-3.1-12-8.09a61,61,0,0,1-4.94-6.43ZM238,124.89a27.84,27.84,0,0,0,2.69,3.47c3.54,4.08,8.3,6.55,12.74,2.69,4.17-3.62,2.79-8.69-.95-13l-2.83-3.26Zm14.64-12.7,3.11,3.58c3.62,4.17,7.91,4.73,10.86,2.18,3.58-3.11,2.63-7-.83-11a22.36,22.36,0,0,0-3.3-3.25Z"/>
      <path class="cls-3" d="M282.91,120.29l3.76,3.62-25,26,12.46,12-3,3.16-16.22-15.59Z"/>
      <path class="cls-3" d="M290.36,164.61,279.18,172l-4.24-3.35,35.85-23.22,4.94,3.91L301.5,189.61l-4.38-3.46,4.49-12.66Zm12.94,5L307.4,158c.93-2.63,1.95-4.88,2.93-7.09l-.09-.07c-2,1.51-4,3-6.14,4.48l-10.36,6.73Z"/>
      <path class="cls-3" d="M332.51,207.89a25.9,25.9,0,0,1-10.05-4.09c-9.63-6.09-13-16.77-5.95-28,6.77-10.7,18.61-13.36,29.2-6.66,4.26,2.69,6.37,5.31,7.15,6.65l-3.34,2.93a19,19,0,0,0-6-5.78c-8-5.07-16.58-3.31-22.25,5.66-5.29,8.37-3.87,16.79,4.44,22a20.88,20.88,0,0,0,8.1,3.13Z"/>
      <path class="cls-3" d="M357.9,177.13l4.67,2.33-8.7,17.45.16.08c1.66-.91,3.27-1.72,4.77-2.45l17.84-8.07,5.8,2.89-20.76,8.82,3.73,27.88-5.53-2.76-3.06-23.72-5.42,2.26-6.88,13.8-4.67-2.33Z"/>
      <path class="cls-3" d="M405.18,197.88l4.92,1.75L401,225.13c-3.59,10.12-9.67,11.46-16.23,9.13a16.92,16.92,0,0,1-4.94-2.77l2.16-3.75a12.47,12.47,0,0,0,3.87,2.2c4.41,1.57,7.71.51,10.36-7Z"/>
      <path class="cls-3" d="M416.48,230.55l-7.24,11.27L404,240.47l23.39-35.74,6.1,1.57,3.29,42.6-5.4-1.39-1-13.39Zm13.86-.65-.93-12.26c-.21-2.78-.2-5.25-.19-7.67l-.12,0c-1.18,2.17-2.43,4.39-3.8,6.58l-6.75,10.34Z"/>
      <path class="cls-3" d="M472.54,253a25.91,25.91,0,0,1-10.85.34c-11.28-1.66-18.71-10-16.78-23.16,1.85-12.52,11.59-19.76,24-17.93,5,.74,8,2.27,9.23,3.18l-1.87,4a19,19,0,0,0-7.83-2.85c-9.38-1.38-16.5,3.69-18,14.2-1.45,9.79,3.26,16.92,13,18.35a20.89,20.89,0,0,0,8.67-.42Z"/>
      <path class="cls-3" d="M483.29,214.64l5.21.24-.89,19.48h.18c1.15-1.51,2.29-2.9,3.37-4.17l13-14.6,6.47.3-15.41,16.47,14.7,24-6.17-.28-12.4-20.45-4,4.26-.71,15.4-5.21-.24Z"/>
      <path class="cls-3" d="M526.54,215.77a60.47,60.47,0,0,1,9.91-1.65c5.14-.45,9,.42,11.59,2.36a10.87,10.87,0,0,1,4.26,8.12,11.9,11.9,0,0,1-2.36,8.88c-2.49,3.17-6.85,5.05-11.93,5.5a18,18,0,0,1-4.22,0l1.41,16.14-5.2.45Zm6.9,19a17.53,17.53,0,0,0,4.34,0c6.28-.55,9.83-3.93,9.35-9.49-.46-5.32-4.45-7.56-10.19-7.06a22,22,0,0,0-4.86.85Z"/>
      <path class="cls-3" d="M563.24,239.21l-1.92,13.26-5.32.94,6.49-42.21,6.2-1.1,20.63,37.42-5.49,1-6.47-11.77Zm12.35-6.33-5.93-10.77c-1.35-2.44-2.36-4.7-3.35-6.9l-.12,0c-.17,2.47-.39,5-.73,7.56L563.6,235Z"/>
      <path class="cls-3" d="M601.39,244.15l-4.5-16.56-18.44-19.11,5.73-1.56,8.43,9.27c2.31,2.54,4.11,4.6,6.07,7l.12,0c.41-2.85,1-5.76,1.75-9.12l2.69-12.3,5.73-1.56-7,26,4.52,16.62Z"/>
      <path class="cls-3" d="M622.46,231.35a18.49,18.49,0,0,0,9.69-.8c5-1.87,6.94-5.6,5.51-9.42-1.32-3.54-4.1-4.81-10-4.87-7,.12-12-1.66-14-7-2.2-5.9,1.05-12.11,8.42-14.86a18.38,18.38,0,0,1,9.07-1.27l.14,4.5a16.1,16.1,0,0,0-7.87.89c-5.17,1.93-6,5.76-5,8.34,1.32,3.54,4.28,4.42,10.26,4.5,7.33.08,11.75,2,13.82,7.52,2.18,5.85-.26,12.52-9.2,15.86-3.65,1.36-8,1.79-10.57,1.19Z"/>
      <path class="cls-3" d="M664.12,214.57a17.66,17.66,0,0,0,8.79-1.87c6-3.17,5.83-8,4.26-10.81-2.61-4.8-8.05-4.56-12.56-2.18l-2.6,1.38-1.85-3.5,2.6-1.38c3.39-1.8,6.76-5.82,4.6-9.9-1.46-2.76-4.5-4.27-8.8-2a14.33,14.33,0,0,0-5.69,5.93l-3-2.75a18.54,18.54,0,0,1,7.61-7.42c6.79-3.59,12-1.19,14.21,3,1.88,3.55,1.36,7.7-2.07,11.48l.06.11c4.69-1.4,9.82,0,12.38,4.78,2.92,5.51,1.18,12.61-7.09,17a19.83,19.83,0,0,1-10.2,2.41Z"/>
      <path class="cls-3" d="M691.51,163.84l-10.09,7-2.54-3.64,24.56-17.12,2.54,3.64-10.14,7.07,20.59,29.54-4.33,3Z"/>
      <path class="cls-3" d="M743.67,141.8c9.08,10.55,7.48,21.66-.35,28.39-8.1,7-19.18,5.58-27.16-3.7-8.37-9.73-7.8-21.31.39-28.35C724.92,130.95,735.85,132.7,743.67,141.8Zm-23.36,21c5.63,6.55,14.23,9.37,20.46,4s4.86-14.23-1.13-21.19c-5.24-6.09-13.9-9.72-20.5-4.05S714.52,156,720.31,162.76Z"/>
      <path class="cls-3" d="M772,142.07l-2.45-2.12-.32-5.76c-.63-13.74-1.49-20.44-5.89-24.34-3-2.6-7-3.54-10.83.85a13.28,13.28,0,0,0-2.93,8.42l-3.91-1.17A17.12,17.12,0,0,1,749.89,107c5.5-6.34,12.17-5.24,16.39-1.59,5.44,4.72,6.41,12.48,7,23.88l.13,4.24.09.08L785,120.39l3.31,2.87Z"/>
    </g>
    <g>
      <path class="cls-4" d="M180,159.2l.9-.27a10.66,10.66,0,0,0,.75,1.37,2.06,2.06,0,0,0,.77.72,1.81,1.81,0,0,0,1,.14,11.59,11.59,0,0,0,1.51-.31l13.64-4a1.65,1.65,0,0,0,.7-.53,1.08,1.08,0,0,0,.15-.66,3.61,3.61,0,0,0-.2-.89,11.33,11.33,0,0,1-.32-1.18l.92-.28a12,12,0,0,0,.49,1.28q.28.63.59,1.27.43.9.82,1.65t.79,1.47q.39.72.8,1.51t.85,1.72q2.06,4.33,1.21,7.49a7.49,7.49,0,0,1-4.36,4.83,13.71,13.71,0,0,1-5,1.37,10.13,10.13,0,0,1-4.7-.79,12.72,12.72,0,0,1-4.25-3.09,21.48,21.48,0,0,1-3.62-5.53Zm5.47,8.68a8.06,8.06,0,0,0,4.52,4.43q2.9,1,7.43-.29a9.69,9.69,0,0,0,1.3-.42q.6-.25,1.13-.5a6.34,6.34,0,0,0,3.65-3.63,7,7,0,0,0-.7-5.17l-.53-1.12a9.15,9.15,0,0,0-.48-.89,1.35,1.35,0,0,0-.51-.5,1.26,1.26,0,0,0-.69-.12,5.4,5.4,0,0,0-1,.21l-13.44,3.92a6,6,0,0,0-.91.31q-.89.42-.81,1.06a6.77,6.77,0,0,0,.66,1.85Z"/>
      <path class="cls-4" d="M191.21,182.05l.87-.34a4.18,4.18,0,0,0,1.52,1.6,2.09,2.09,0,0,0,1.82.15l13.77-5.28q1.76-1,.37-3.42l.87-.34L218.86,189l-5.35,2.28-.61-.8a6.8,6.8,0,0,0,2-1.72,2.89,2.89,0,0,0,.58-1.71,4.28,4.28,0,0,0-.47-1.82q-.46-.94-1.06-2l-.43-.74a4.2,4.2,0,0,0-1.27-1.52,1.37,1.37,0,0,0-1.26-.09l-5.24,2-.12,0-.12,0a.58.58,0,0,0-.27.89l.55,1a13.54,13.54,0,0,0,.82,1.27,3.38,3.38,0,0,0,1,.9,3,3,0,0,0,1.37.39,5.77,5.77,0,0,0,1.93-.28l.61,1L204,191l-.59-1,.64-.37a4.07,4.07,0,0,0,1.1-.87,1.58,1.58,0,0,0,.38-.94,2.64,2.64,0,0,0-.22-1.12,11.55,11.55,0,0,0-.71-1.41l-.18-.31q-.77-1.32-1.72-.93l-5.58,2.13a1.12,1.12,0,0,0-.28.12q-1.25.73-.08,2.75l.48.83a15.2,15.2,0,0,0,1.91,2.71,5.83,5.83,0,0,0,1.88,1.39,5.69,5.69,0,0,0,2.11.48q1.13,0,2.61,0l.2.83-6.19,1.5Z"/>
      <path class="cls-4" d="M208.21,209.46l.8-.46.65.74q.34.39.67.7a3.14,3.14,0,0,0,.6.47q.27.16.43.05l.27-.21.43-.4,2.69-2.78a.94.94,0,0,0,.12-.9,3.5,3.5,0,0,0-.5-1.08l-2.66-3.9a1.63,1.63,0,0,0-1.58-.9l-3.56.45-.46.12a1.74,1.74,0,0,0-.52.25q-1,.68.47,2.82l-1,.49-4-5.92,1-.43a2.82,2.82,0,0,0,1.42,1,6.09,6.09,0,0,0,2.07.2l20.52-1.2.2.94-12.53,14.1a1.11,1.11,0,0,0-.41,1.1,9.4,9.4,0,0,0,.66,1.57l-.85.45Zm13.6-9.46-7.51.49a4.2,4.2,0,0,0-.79,0,1.18,1.18,0,0,0-.45.16q-.31.21.31,1.12l2.26,3.31q.58.85.94.61a1.77,1.77,0,0,0,.29-.26l.4-.42Z"/>
      <path class="cls-4" d="M214.73,218.66l.77-.52q1.74,2.2,3.22,1.39l13.34-7.44q1.46-1.15-.28-3.35l.81-.46,5.71,7.25-.81.46q-1.8-2.29-3.89-1.14l-13,7.13-.1.05-.1.05q-.85.67.34,2.18l.9,1.14q.9,1.14,1.64,1.91a5,5,0,0,0,1.68,1.16,5.24,5.24,0,0,0,2.23.34,18.59,18.59,0,0,0,3.32-.52l.43.75-6.22,2.37Z"/>
      <path class="cls-4" d="M226.9,233.92l.78-.51a4.18,4.18,0,0,0,1.82,1.26,2.09,2.09,0,0,0,1.81-.22l12.39-8q1.52-1.36-.34-3.42l.78-.51L255.38,235l-4.76,3.33-.76-.66a6.78,6.78,0,0,0,1.64-2.1,2.88,2.88,0,0,0,.21-1.79,4.29,4.29,0,0,0-.83-1.69q-.64-.83-1.45-1.73l-.57-.63a4.19,4.19,0,0,0-1.56-1.22,1.37,1.37,0,0,0-1.25.17l-4.72,3-.1.07-.1.07a.58.58,0,0,0-.08.93l.74.82a13.62,13.62,0,0,0,1.07,1.07,3.39,3.39,0,0,0,1.15.68,3,3,0,0,0,1.42.1,5.77,5.77,0,0,0,1.83-.67l.81.9L241.24,240l-.78-.87.55-.5a4.08,4.08,0,0,0,.9-1.07,1.59,1.59,0,0,0,.18-1,2.64,2.64,0,0,0-.45-1.05,11.45,11.45,0,0,0-1-1.24l-.24-.26q-1-1.14-1.87-.56l-5,3.23a1.11,1.11,0,0,0-.25.18q-1.08,1,.49,2.71l.64.71a15.18,15.18,0,0,0,2.43,2.26,5.82,5.82,0,0,0,2.13,1,5.69,5.69,0,0,0,2.17,0q1.11-.19,2.55-.53l.36.77-5.75,2.74Z"/>
      <path class="cls-4" d="M257.82,262a2.63,2.63,0,0,1-.84.43,4.4,4.4,0,0,1-1.18.23,4.27,4.27,0,0,1-1.28-.13,2.48,2.48,0,0,1-1.14-.63,4.63,4.63,0,0,1-1.53-2.37,3.12,3.12,0,0,1,.65-2.23q.66-1,1.5-2.05a13.61,13.61,0,0,0,1.38-2.1,5.18,5.18,0,0,0,.61-2,2.2,2.2,0,0,0-.75-1.78l-.71-.69q-.64-.62-1-.47l-5.48,4a1.27,1.27,0,0,0-.26.22q-1.16,1.2.75,3l-.72.59-6.44-6.26.75-.56a3.88,3.88,0,0,0,1.81,1,2.1,2.1,0,0,0,1.78-.36l12.18-9q1.12-1.15-.84-3.06l.77-.59,2.85,2.77,1.31,1.25,1.06,1,1.08,1,1.37,1.31A8,8,0,0,1,267,246.4a5.93,5.93,0,0,1,.69,1.94,4.19,4.19,0,0,1-.1,1.84,3.63,3.63,0,0,1-.9,1.54,4.55,4.55,0,0,1-1.9,1.21,5.68,5.68,0,0,1-2.16.24,7.35,7.35,0,0,1-2.3-.58,15.74,15.74,0,0,1-2.34-1.24l-.06.07a6,6,0,0,1,.41,2.87,4.93,4.93,0,0,1-.73,2.15q-.35.52-.88,1.21a9.87,9.87,0,0,0-.9,1.41,5,5,0,0,0-.49,1.35,1.09,1.09,0,0,0,.31,1.05q.51.49,1.91-.08Zm-1.3-13.09A13.08,13.08,0,0,0,258,250.2a4.93,4.93,0,0,0,1.81.81,4,4,0,0,0,2-.1,5.34,5.34,0,0,0,2.19-1.49,2.81,2.81,0,0,0,.81-2.74,3.76,3.76,0,0,0-.6-1.29,7.91,7.91,0,0,0-.95-1.11l-1.1-1.06a1.18,1.18,0,0,0-1.06-.43,3.41,3.41,0,0,0-1.21.63L255.19,247q-.32.33.11.75Z"/>
      <path class="cls-4" d="M276.9,281.21l.66-.66q2.2,1.73,3.9.21l10.52-10-18.43,7.8-.67-.53L280,261.71l-10.28,9.22-.23.21-.2.23a1.8,1.8,0,0,0-.39,1.7,3.59,3.59,0,0,0,1.32,1.71l-.66.66-6.05-4.76.66-.66a3.32,3.32,0,0,0,4.65-.11l10.76-9.66a2.45,2.45,0,0,0,.34-.54.73.73,0,0,0,0-.56,2.36,2.36,0,0,0-.53-.73,13,13,0,0,0-1.22-1.06l.68-.64,5.16,4.06-6.6,14.71L294,268.61l5.08,4-.71.62a8.12,8.12,0,0,0-1.41-.93,2.59,2.59,0,0,0-1-.29,1.45,1.45,0,0,0-.76.17,2.42,2.42,0,0,0-.58.45l-10.36,10-.21.19a1.91,1.91,0,0,0-.19.21q-1.19,1.51.85,3.11l-.66.66Z"/>
      <path class="cls-4" d="M314,286.7l.22-.23.19-.25q1.17-1.75-1.23-3.34l.63-.69,6.17,4.12-.63.69a3.19,3.19,0,0,0-2.24-.7,3.5,3.5,0,0,0-1.89,1.21l-6.45,7a15.71,15.71,0,0,1-2.49,2.2,6.45,6.45,0,0,1-2.81,1.11,7.91,7.91,0,0,1-3.43-.36,17,17,0,0,1-4.32-2.19,7.29,7.29,0,0,1-3.33-4,5,5,0,0,1,.78-4.18,5.66,5.66,0,0,1,.39-.52l.42-.5,7.9-8.51q1-1.52-1.23-3l.63-.69,7.68,5.12-.66.67a4.18,4.18,0,0,0-2.35-.9,2.49,2.49,0,0,0-1.71.9l-7.06,7.58q-.4.4-.77.83a9,9,0,0,0-.69.91,5,5,0,0,0-.64,1.34,2.84,2.84,0,0,0,0,1.46,3.91,3.91,0,0,0,.86,1.59,9.47,9.47,0,0,0,2,1.73,7.6,7.6,0,0,0,3,1.28,6.76,6.76,0,0,0,2.6-.06,6,6,0,0,0,2.13-1A12,12,0,0,0,307.3,294Z"/>
      <path class="cls-4" d="M328.09,297.9a7.15,7.15,0,0,0,.71-4.21,4.29,4.29,0,0,0-2.24-3,5.81,5.81,0,0,0-1.7-.67,4.29,4.29,0,0,0-1.65-.05,3.92,3.92,0,0,0-1.43.54,3.08,3.08,0,0,0-1,1.07,2.37,2.37,0,0,0-.27,1.77,6,6,0,0,0,1,2.11q1,1.46,2,2.59a13.72,13.72,0,0,1,1.52,2.15,4.82,4.82,0,0,1,.63,2,4,4,0,0,1-.64,2.22,8.14,8.14,0,0,1-1.69,2,7.34,7.34,0,0,1-2.4,1.4,7,7,0,0,1-2.94.36,7.73,7.73,0,0,1-3.28-1.11,10.06,10.06,0,0,1-1.58-1.1,7.35,7.35,0,0,1-.95-1,3.59,3.59,0,0,1-.49-.78c-.09-.22-.15-.37-.18-.46a14.91,14.91,0,0,1-1.55,0,6.43,6.43,0,0,1-1.35-.22q1.21-2,2.2-3.52a24.35,24.35,0,0,1,1.89-2.56l1,.55a1.7,1.7,0,0,0-.3.38l-.24.41a4.83,4.83,0,0,0-.67,2.07,5.1,5.1,0,0,0,.23,2,5.6,5.6,0,0,0,.94,1.74,5.23,5.23,0,0,0,1.48,1.29,6.25,6.25,0,0,0,1.56.61,6.43,6.43,0,0,0,1.94.2,5.13,5.13,0,0,0,1.92-.47,3.28,3.28,0,0,0,1.48-1.38,2.87,2.87,0,0,0,.39-1.84,3.78,3.78,0,0,0-.94-1.94q-1.07-1.27-2.06-2.38a13.52,13.52,0,0,1-1.62-2.19,5.4,5.4,0,0,1-.73-2.19,4,4,0,0,1,.65-2.42,6.18,6.18,0,0,1,1.9-2.05A7,7,0,0,1,322,288.8a7.2,7.2,0,0,1,2.65-.07,7,7,0,0,1,2.47.87,5,5,0,0,1,1,.74,6.64,6.64,0,0,1,.7.8q.3.41.55.82t.5.77a7.09,7.09,0,0,1,2.48.19q-.45,1-1,2t-1.11,1.73q-.61.87-1.33,1.74Z"/>
      <path class="cls-4" d="M326.15,313l.52-.77a4.38,4.38,0,0,0,2.61.55,3.13,3.13,0,0,0,2.1-1.31L340,299.91a1.16,1.16,0,0,0,.14-.9q-.13-.38-.88-.77-3.69-1.91-7.94,1.83l-.71-.64,4.72-5q.59.41,1.14.76t1.09.63l10.91,5.64q.6.31,1.27.59t1.38.54l-3.91,5.24-.88-.31a2.62,2.62,0,0,0,.22-.35l.18-.34q1.9-3.67-1.95-5.66-1.39-.72-2,.13l-8.58,11.57-.19.25a2.66,2.66,0,0,0-.16.27q-1,2,1.66,3.36l-.52.77Z"/>
      <path class="cls-4" d="M368.2,317a7.15,7.15,0,0,0,.18-4.27,4.28,4.28,0,0,0-2.6-2.73,5.8,5.8,0,0,0-1.77-.46,4.3,4.3,0,0,0-1.65.15,3.92,3.92,0,0,0-1.35.72,3.08,3.08,0,0,0-.9,1.19,2.37,2.37,0,0,0,0,1.79,6,6,0,0,0,1.3,2q1.21,1.32,2.29,2.32a13.73,13.73,0,0,1,1.77,1.95,4.83,4.83,0,0,1,.88,2,4,4,0,0,1-.35,2.28,8.15,8.15,0,0,1-1.42,2.21,7.35,7.35,0,0,1-2.21,1.69,7,7,0,0,1-2.87.72,7.72,7.72,0,0,1-3.39-.69,10.12,10.12,0,0,1-1.7-.89,7.36,7.36,0,0,1-1.06-.86,3.59,3.59,0,0,1-.58-.72q-.18-.31-.24-.44a15,15,0,0,1-1.54.18,6.43,6.43,0,0,1-1.37,0q1-2.14,1.74-3.77a24.34,24.34,0,0,1,1.55-2.78l1,.43a1.7,1.7,0,0,0-.25.41l-.19.44a4.83,4.83,0,0,0-.41,2.14,5.11,5.11,0,0,0,.48,2,5.59,5.59,0,0,0,1.15,1.61,5.23,5.23,0,0,0,1.63,1.1,6.27,6.27,0,0,0,1.62.41,6.44,6.44,0,0,0,1.95,0,5.15,5.15,0,0,0,1.84-.7,3.29,3.29,0,0,0,1.3-1.56,2.87,2.87,0,0,0,.16-1.87A3.77,3.77,0,0,0,362,321q-1.22-1.12-2.34-2.1a13.49,13.49,0,0,1-1.88-2,5.39,5.39,0,0,1-1-2.08,4,4,0,0,1,.34-2.48,6.18,6.18,0,0,1,1.63-2.27,7,7,0,0,1,2.31-1.36,7.19,7.19,0,0,1,2.62-.4,7,7,0,0,1,2.56.56,5,5,0,0,1,1.07.61,6.59,6.59,0,0,1,.8.71q.35.37.65.75t.59.7a7.09,7.09,0,0,1,2.48-.12q-.33,1-.77,2.08t-.89,1.85q-.5.94-1.1,1.9Z"/>
      <path class="cls-4" d="M368.13,332.16l.42-.83a4.38,4.38,0,0,0,2.66.23,3.13,3.13,0,0,0,1.92-1.56l7.16-12.52a1.16,1.16,0,0,0,0-.91,1.67,1.67,0,0,0-1-.65q-3.9-1.44-7.66,2.8l-.78-.55,4.08-5.5,1.23.62q.59.29,1.16.49L388.9,318q.63.23,1.34.43t1.44.37l-3.23,5.68-.91-.2a2.56,2.56,0,0,0,.18-.38l.13-.36q1.43-3.88-2.63-5.38-1.47-.54-2,.38l-7.09,12.54a2.7,2.7,0,0,0-.16.27,2.63,2.63,0,0,0-.12.28q-.77,2.08,2.06,3.13l-.42.83Z"/>
      <path class="cls-4" d="M392.47,340.57l.35-.86,1,.18q.51.1,1,.14a3.16,3.16,0,0,0,.76,0q.31,0,.37-.22t.08-.33c0-.12.06-.32.09-.59l.4-3.85a.94.94,0,0,0-.46-.78,3.51,3.51,0,0,0-1.06-.54l-4.5-1.42a1.63,1.63,0,0,0-1.8.27l-2.52,2.55-.29.38a1.75,1.75,0,0,0-.25.51q-.36,1.14,2.11,1.92l-.46,1-6.84-2.15.53-1a2.82,2.82,0,0,0,1.73-.1,6.08,6.08,0,0,0,1.75-1.13l15.39-13.63.74.62-1.13,18.83a1.11,1.11,0,0,0,.36,1.11,9.37,9.37,0,0,0,1.49.82l-.39.88Zm4.84-15.84-5.6,5a4.18,4.18,0,0,0-.59.52,1.18,1.18,0,0,0-.26.4q-.11.35.94.68l3.83,1.21q1,.31,1.11-.1a1.77,1.77,0,0,0,.07-.38c0-.16,0-.35.05-.58Z"/>
      <path class="cls-4" d="M420.11,348.43l-6.76-19.6-5,11.58a6.37,6.37,0,0,0-.36,1q-.64,2.54,2.08,3.23l-.33.87-7.47-1.87.36-.86q2.62.66,4.1-2.76l5.45-12.68a1,1,0,0,0-.4-1.1,5.8,5.8,0,0,0-2.18-.88l.4-.85,5.65,1.42,6,17.37L426.12,333a4.55,4.55,0,0,0,.34-.9q.59-2.37-2.13-3.05l.36-.86,7.44,1.87-.4.85q-2.86-.72-4.2,2.45L421,348.43Z"/>
      <path class="cls-4" d="M426.65,349.6l.31-.88a10.63,10.63,0,0,0,1.55.19,2.05,2.05,0,0,0,1-.2,1.81,1.81,0,0,0,.72-.75,11.63,11.63,0,0,0,.64-1.4l4.75-13.4a1.64,1.64,0,0,0,0-.88,1.07,1.07,0,0,0-.45-.51,3.63,3.63,0,0,0-.84-.36,11.21,11.21,0,0,1-1.15-.43l.31-.91a11.92,11.92,0,0,0,1.32.35l1.38.27q1,.18,1.82.31l1.65.23,1.69.23q.88.13,1.89.32,4.71.87,6.77,3.42a7.49,7.49,0,0,1,1.35,6.37,13.7,13.7,0,0,1-1.82,4.84,10.13,10.13,0,0,1-3.4,3.34,12.73,12.73,0,0,1-5,1.63,21.52,21.52,0,0,1-6.6-.31Zm10.24.67a8.05,8.05,0,0,0,6.24-1.06q2.54-1.74,4.12-6.19a9.68,9.68,0,0,0,.42-1.3q.15-.63.26-1.21a6.34,6.34,0,0,0-.79-5.09,7,7,0,0,0-4.6-2.47l-1.22-.23a9.21,9.21,0,0,0-1-.14,1.35,1.35,0,0,0-.71.12,1.25,1.25,0,0,0-.51.49,5.38,5.38,0,0,0-.43,1L434,347.34a6,6,0,0,0-.28.92q-.18,1,.38,1.28a6.78,6.78,0,0,0,1.88.55Z"/>
      <path class="cls-4" d="M470,356.67a9.78,9.78,0,0,1-3.59-1,8.24,8.24,0,0,1-2.61-2.09,7.91,7.91,0,0,1-1.49-2.91,9.36,9.36,0,0,1-.28-3.48,11.29,11.29,0,0,1,.72-3,13.11,13.11,0,0,1,1.49-2.78,14.46,14.46,0,0,1,2.13-2.41,12.42,12.42,0,0,1,5.79-3,11,11,0,0,1,3.41-.17,10.36,10.36,0,0,1,3.66,1,8.7,8.7,0,0,1,2.7,2.07,7.61,7.61,0,0,1,1.57,2.9,9.18,9.18,0,0,1,.29,3.52,11.29,11.29,0,0,1-1.37,4.28,14,14,0,0,1-3,3.79,13.71,13.71,0,0,1-4.27,2.58A11.09,11.09,0,0,1,470,356.67Zm.53-1.16a6.74,6.74,0,0,0,3.66-.61,8.83,8.83,0,0,0,3-2.32,12.68,12.68,0,0,0,2.09-3.63,17.19,17.19,0,0,0,1.05-4.51,11.21,11.21,0,0,0,0-2.74,6.08,6.08,0,0,0-.8-2.31,5,5,0,0,0-1.69-1.67,6.25,6.25,0,0,0-2.69-.82,6.39,6.39,0,0,0-3.79.71,8.78,8.78,0,0,0-2.87,2.53,13.74,13.74,0,0,0-1.92,3.74,19.22,19.22,0,0,0-.95,4.33,10.45,10.45,0,0,0,.06,2.75,6.16,6.16,0,0,0,.81,2.25,4.57,4.57,0,0,0,1.62,1.57A6.13,6.13,0,0,0,470.53,355.52Z"/>
      <path class="cls-4" d="M502.48,358.57l-10.64-17.8-2.47,12.35a6.31,6.31,0,0,0-.15,1q-.1,2.62,2.7,2.73l-.14.92-7.7-.3.18-.92q2.7.11,3.44-3.55l2.73-13.53a1,1,0,0,0-.62-1,5.8,5.8,0,0,0-2.31-.41l.21-.92,5.82.23,9.41,15.77,2.24-11a4.51,4.51,0,0,0,.14-1q.1-2.44-2.71-2.55l.18-.92,7.66.3-.21.92q-2.94-.11-3.61,3.26l-3.29,16.14Z"/>
      <path class="cls-4" d="M517.26,358.22l.12-.93a6.55,6.55,0,0,0,2.79-.59,2,2,0,0,0,1.2-1.53l1.86-13.57a.78.78,0,0,1,0-.17.68.68,0,0,0,0-.14q0-1-1.06-1l-2.7.08.12-.93q1.24-.22,2.08-.41a9.72,9.72,0,0,0,1.53-.47,8.08,8.08,0,0,0,1.33-.7q.64-.42,1.51-1.06l.82.19a8.14,8.14,0,0,0-.51,2l-2.22,16a1.15,1.15,0,0,0,0,.31q0,1.7,3.56,1.6l-.08.93Z"/>
      <path class="cls-4" d="M534.45,339.55q-1.28.08-2.45,3l-.73-.3,1.29-5.12q.61,0,1.37,0l1.79-.09,8.72-.53-.13,1.34q-.65,1-1.34,2.23t-1.34,2.6q-.65,1.34-1.23,2.62t-1,2.33q-.8,2-1.42,4.12a21.87,21.87,0,0,0-.82,4.14q-.2,2-2,2.13-1.6.1-1.67-1.17a5.84,5.84,0,0,1,.35-2.08,25.13,25.13,0,0,1,1-2.6q.61-1.35,1.31-2.66l1.25-2.3q.61-1.12,1.34-2.32l1.37-2.28,1.16-1.93q.52-.85.78-1.3a.25.25,0,0,0-.3-.26Z"/>
      <path class="cls-4" d="M564.23,354.76l0-.93,1-.25q.5-.13.93-.27a3.15,3.15,0,0,0,.69-.32c.18-.12.26-.23.24-.36s0-.21-.06-.33-.08-.31-.16-.57l-1.25-3.67a.94.94,0,0,0-.74-.51,3.52,3.52,0,0,0-1.19-.05l-4.68.59a1.63,1.63,0,0,0-1.52,1l-1.22,3.37c0,.13-.07.28-.1.46a1.75,1.75,0,0,0,0,.57q.15,1.19,2.72.86v1.09l-7.11.9.08-1.1a2.81,2.81,0,0,0,1.53-.81,6.1,6.1,0,0,0,1.12-1.76l8.28-18.81.93.26,6.84,17.58a1.11,1.11,0,0,0,.79.86,9.43,9.43,0,0,0,1.7.13v1ZM562,338.34l-3,6.91a4.12,4.12,0,0,0-.32.72,1.19,1.19,0,0,0-.07.47q0,.37,1.14.23l4-.5q1-.13,1-.56a1.76,1.76,0,0,0-.1-.38l-.2-.55Z"/>
      <path class="cls-4" d="M592.63,350.39l-14.31-15,.32,12.59a6.25,6.25,0,0,0,.09,1.05q.48,2.58,3.24,2.07l.06.93-7.57,1.41,0-.94q2.65-.49,2.57-4.22l-.33-13.8a1,1,0,0,0-.82-.84,5.79,5.79,0,0,0-2.35.11v-.94l5.72-1.06L591.89,345l-.24-11.21a4.53,4.53,0,0,0-.07-1q-.45-2.4-3.2-1.89l0-.94,7.54-1.4v.94q-2.9.54-2.8,4l.35,16.47Z"/>
      <path class="cls-4" d="M599.06,348.73l-.09-.93a10.61,10.61,0,0,0,1.49-.47,2,2,0,0,0,.85-.61,1.81,1.81,0,0,0,.34-1,11.73,11.73,0,0,0,0-1.54L600.4,330a1.65,1.65,0,0,0-.38-.79,1.07,1.07,0,0,0-.62-.27,3.62,3.62,0,0,0-.91,0,11.21,11.21,0,0,1-1.22.09l-.1-1a12,12,0,0,0,1.35-.23l1.36-.33q1-.24,1.78-.48l1.6-.48,1.63-.49q.85-.25,1.85-.5,4.65-1.17,7.58.29a7.49,7.49,0,0,1,3.88,5.23,13.7,13.7,0,0,1,.36,5.16,10.14,10.14,0,0,1-1.7,4.45A12.72,12.72,0,0,1,613,344.3a21.49,21.49,0,0,1-6.13,2.47Zm9.59-3.65a8.05,8.05,0,0,0,5.24-3.56q1.59-2.64,1.17-7.34a9.5,9.5,0,0,0-.16-1.36q-.12-.64-.27-1.21a6.34,6.34,0,0,0-2.84-4.3,7,7,0,0,0-5.21-.33l-1.21.3a9.18,9.18,0,0,0-1,.29,1.35,1.35,0,0,0-.59.4,1.25,1.25,0,0,0-.26.65,5.31,5.31,0,0,0,0,1l1.2,13.95a6,6,0,0,0,.13,1q.24,1,.88,1a6.79,6.79,0,0,0,1.94-.28Z"/>
      <path class="cls-4" d="M647.33,334.5l-.21-.91q2.64-.93,2.26-3.19l-2.81-14.22-3.26,19.74-.8.28-10-14.76,2.29,13.62a2.68,2.68,0,0,0,.05.31,2.79,2.79,0,0,0,.09.3,1.8,1.8,0,0,0,1.23,1.23,3.6,3.6,0,0,0,2.15-.2l.21.91-7.26,2.57-.21-.91a3.32,3.32,0,0,0,2.39-4L631,321a2.47,2.47,0,0,0-.28-.57.73.73,0,0,0-.48-.29,2.36,2.36,0,0,0-.9.06,13,13,0,0,0-1.55.47l-.17-.92,6.19-2.19,8.9,13.44,3.05-17.67,6.09-2.15.14.93a8.08,8.08,0,0,0-1.54.69,2.57,2.57,0,0,0-.79.7,1.44,1.44,0,0,0-.27.73,2.39,2.39,0,0,0,.07.73l2.92,14.11c0,.1,0,.2,0,.28a2,2,0,0,0,.08.27q.64,1.81,3.08.94l.21.91Z"/>
      <path class="cls-4" d="M671.89,306.2a2.88,2.88,0,0,0-.08-.3,2.52,2.52,0,0,0-.11-.29q-.84-1.93-3.48-.77l-.24-.9,6.8-3,.24.91a3.18,3.18,0,0,0-1.8,1.51,3.5,3.5,0,0,0,0,2.25l2.39,9.21a15.65,15.65,0,0,1,.5,3.29,6.45,6.45,0,0,1-.58,3,7.92,7.92,0,0,1-2.16,2.69,17,17,0,0,1-4.18,2.45,7.29,7.29,0,0,1-5.19.63,5,5,0,0,1-3.09-2.91,5.82,5.82,0,0,1-.23-.61l-.19-.62-2.9-11.24q-.73-1.67-3.2-.59l-.24-.91,8.46-3.69.21.92a4.18,4.18,0,0,0-2,1.49,2.49,2.49,0,0,0-.17,1.93l2.56,10q.12.55.28,1.09a9.14,9.14,0,0,0,.39,1.08,5,5,0,0,0,.78,1.26,2.84,2.84,0,0,0,1.21.82,3.91,3.91,0,0,0,1.8.14,9.48,9.48,0,0,0,2.56-.78,7.6,7.6,0,0,0,2.7-1.84,6.76,6.76,0,0,0,1.35-2.23,6,6,0,0,0,.35-2.31,12.05,12.05,0,0,0-.28-2.1Z"/>
      <path class="cls-4" d="M689,300.44a7.15,7.15,0,0,0-3.15-2.88,4.28,4.28,0,0,0-3.76.23,5.82,5.82,0,0,0-1.49,1.07,4.29,4.29,0,0,0-.94,1.36,3.92,3.92,0,0,0-.32,1.49,3.09,3.09,0,0,0,.34,1.45,2.37,2.37,0,0,0,1.34,1.19,6,6,0,0,0,2.34.26q1.79-.08,3.25-.26a13.72,13.72,0,0,1,2.63-.11,4.83,4.83,0,0,1,2.07.58,4,4,0,0,1,1.52,1.74,8.15,8.15,0,0,1,.78,2.51,7.37,7.37,0,0,1-.12,2.78,7,7,0,0,1-1.3,2.66,7.73,7.73,0,0,1-2.71,2.15,10.1,10.1,0,0,1-1.78.73,7.37,7.37,0,0,1-1.34.26,3.6,3.6,0,0,1-.92,0l-.49-.1a15.14,15.14,0,0,1-.85,1.3,6.41,6.41,0,0,1-.92,1q-1-2.11-1.77-3.76a24.46,24.46,0,0,1-1.13-3l1-.5a1.7,1.7,0,0,0,.15.46l.22.43a4.83,4.83,0,0,0,1.37,1.69,5.09,5.09,0,0,0,1.81.9,5.6,5.6,0,0,0,2,.16,5.22,5.22,0,0,0,1.89-.55,6.29,6.29,0,0,0,1.35-1,6.46,6.46,0,0,0,1.22-1.52,5.13,5.13,0,0,0,.65-1.87,3.28,3.28,0,0,0-.36-2,2.87,2.87,0,0,0-1.33-1.33,3.78,3.78,0,0,0-2.14-.26q-1.65.21-3.12.44a13.52,13.52,0,0,1-2.72.17,5.4,5.4,0,0,1-2.24-.57,4,4,0,0,1-1.68-1.86,6.16,6.16,0,0,1-.7-2.7,7,7,0,0,1,.45-2.65,7.2,7.2,0,0,1,1.38-2.27,7,7,0,0,1,2.07-1.6,5,5,0,0,1,1.16-.43,6.57,6.57,0,0,1,1.06-.16q.5,0,1,0h.92a7.09,7.09,0,0,1,1.51-2q.58.92,1.1,1.93T689,298q.4,1,.75,2.06Z"/>
      <path class="cls-4" d="M700.58,310.26l-.37-.86a4.37,4.37,0,0,0,1.88-1.9,3.12,3.12,0,0,0,0-2.47l-5-13.52a1.16,1.16,0,0,0-.68-.61,1.67,1.67,0,0,0-1.12.32q-3.6,2.07-2.77,7.67l-.92.24-1.6-6.65,1.26-.55q.6-.27,1.12-.57l10.66-6.11q.58-.34,1.19-.75t1.2-.87l2.28,6.12-.74.57a2.68,2.68,0,0,0-.18-.38l-.19-.33q-2.06-3.59-5.81-1.43-1.36.78-1,1.78l5.07,13.49a2.67,2.67,0,0,0,.11.29,2.6,2.6,0,0,0,.14.28q1.1,1.93,3.72.43l.37.86Z"/>
      <path class="cls-4" d="M722.66,297.1l-.41-.84a10.68,10.68,0,0,0,1.23-1,2.06,2.06,0,0,0,.58-.87,1.81,1.81,0,0,0,0-1,11.45,11.45,0,0,0-.55-1.44l-6.18-12.8a1.64,1.64,0,0,0-.64-.61,1.07,1.07,0,0,0-.67,0,3.64,3.64,0,0,0-.84.34,11.3,11.3,0,0,1-1.11.51l-.43-.87a12,12,0,0,0,1.18-.69l1.16-.79q.82-.57,1.5-1.08l1.33-1,1.36-1q.71-.53,1.56-1.12,3.94-2.74,7.19-2.41a7.49,7.49,0,0,1,5.48,3.52,13.7,13.7,0,0,1,2.16,4.7,10.13,10.13,0,0,1,0,4.76,12.73,12.73,0,0,1-2.35,4.7,21.47,21.47,0,0,1-4.87,4.47Zm7.68-6.81a8.05,8.05,0,0,0,3.64-5.18q.55-3-1.5-7.28a9.73,9.73,0,0,0-.63-1.22q-.34-.55-.68-1a6.34,6.34,0,0,0-4.17-3,7,7,0,0,0-5,1.53l-1,.71a9.22,9.22,0,0,0-.8.62,1.36,1.36,0,0,0-.41.59,1.25,1.25,0,0,0,0,.7,5.32,5.32,0,0,0,.38,1l6.06,12.62a6,6,0,0,0,.46.85q.56.81,1.17.63a6.78,6.78,0,0,0,1.72-1Z"/>
      <path class="cls-4" d="M757.45,267.71a2.62,2.62,0,0,1,.32.89,4.37,4.37,0,0,1,.08,1.2,4.27,4.27,0,0,1-.29,1.26,2.47,2.47,0,0,1-.77,1.05,4.63,4.63,0,0,1-2.54,1.23,3.12,3.12,0,0,1-2.13-.92q-.9-.78-1.85-1.74a13.65,13.65,0,0,0-1.92-1.63,5.19,5.19,0,0,0-1.94-.86,2.2,2.2,0,0,0-1.86.52l-.78.62q-.69.56-.59.91l3.3,5.93a1.25,1.25,0,0,0,.18.29q1,1.3,3.12-.37l.5.79-7,5.62-.47-.81a3.88,3.88,0,0,0,1.26-1.66,2.1,2.1,0,0,0-.13-1.81L736.5,265q-1-1.25-3.14.46l-.49-.83,3.1-2.49,1.4-1.15,1.09-.94,1.11-.95,1.47-1.2a8,8,0,0,1,2-1.21,5.91,5.91,0,0,1,2-.44,4.19,4.19,0,0,1,1.81.33,3.63,3.63,0,0,1,1.41,1.08,4.56,4.56,0,0,1,1,2,5.68,5.68,0,0,1,0,2.18,7.35,7.35,0,0,1-.86,2.21,15.71,15.71,0,0,1-1.52,2.17l.06.07a6,6,0,0,1,2.9,0,4.94,4.94,0,0,1,2,1q.47.42,1.09,1a9.93,9.93,0,0,0,1.29,1.06,5,5,0,0,0,1.28.66,1.09,1.09,0,0,0,1.09-.18q.55-.44.16-1.91Zm-13.15-.33a12.93,12.93,0,0,0,1.44-1.35,4.93,4.93,0,0,0,1-1.7,4,4,0,0,0,.15-2,5.35,5.35,0,0,0-1.21-2.35,2.81,2.81,0,0,0-2.62-1.14,3.74,3.74,0,0,0-1.36.44,7.89,7.89,0,0,0-1.22.8l-1.19,1a1.18,1.18,0,0,0-.56,1,3.41,3.41,0,0,0,.48,1.28l3,5.17q.29.36.76,0Z"/>
      <path class="cls-4" d="M768.38,261.3l-.57-.73.64-.75q.34-.39.6-.76a3.12,3.12,0,0,0,.38-.66q.12-.29,0-.43l-.24-.24-.46-.37-3.14-2.27a.94.94,0,0,0-.9,0,3.49,3.49,0,0,0-1,.64l-3.48,3.19a1.63,1.63,0,0,0-.67,1.69l1,3.46.18.44a1.76,1.76,0,0,0,.32.48q.81.88,2.72-.87l.62.89L759,269.86l-.57-.94a2.82,2.82,0,0,0,.78-1.55,6.1,6.1,0,0,0-.1-2.08L755,245.15l.9-.33,15.73,10.41a1.11,1.11,0,0,0,1.14.25,9.28,9.28,0,0,0,1.46-.88l.57.78Zm-11.29-12.13,1.54,7.37a4.26,4.26,0,0,0,.16.78,1.18,1.18,0,0,0,.22.43q.25.27,1.06-.47l3-2.71q.76-.7.47-1a1.77,1.77,0,0,0-.3-.25l-.48-.34Z"/>
      <path class="cls-4" d="M786.56,243.82l-11.85-7.51L780,250.57l-.77,1-15.64-9.7q-1.87-.9-2.88.15l-.55-.77,5.51-5.78.57.74a4.47,4.47,0,0,0-1.19,1.74,1.08,1.08,0,0,0,.31,1.11,2.66,2.66,0,0,0,.46.34,2.54,2.54,0,0,1,.4.28l11,7.06-4.08-11.58-2.8-1.68a1.11,1.11,0,0,0-1-.11,3.41,3.41,0,0,0-1.24.92l-.57-.74,5.73-6,.55.77a4.18,4.18,0,0,0-1.07,1.63,1.12,1.12,0,0,0,.28,1.2l.26.22.28.2,11.13,7.32L780,226.36a4.84,4.84,0,0,0-.42-.94,3.14,3.14,0,0,0-.51-.68q-1-1-2.7.81l-.57-.74,4.8-5,.55.77q-1.3,1.36-.14,4.58l6.34,17.71Z"/>
      <path class="cls-4" d="M802,225.07l-.67-.65a4.37,4.37,0,0,0,1-2.48,3.13,3.13,0,0,0-.92-2.29l-9.85-10.53a1.16,1.16,0,0,0-.86-.3,1.67,1.67,0,0,0-.91.73q-2.52,3.3.42,8.14l-.76.58-4.05-5.51q.5-.51,1-1t.81-1l7.46-9.76q.41-.54.8-1.15t.77-1.26l4.48,4.76-.46.81a2.54,2.54,0,0,0-.31-.28l-.31-.23q-3.28-2.51-5.92.93-.95,1.24-.22,2l9.9,10.47.21.23.23.2q1.77,1.35,3.6-1l.67.65Z"/>
      <path class="cls-4" d="M818.14,203.43a9.77,9.77,0,0,1-2.57,2.71,8.24,8.24,0,0,1-3.06,1.35,7.92,7.92,0,0,1-3.27,0,9.36,9.36,0,0,1-3.22-1.36,11.27,11.27,0,0,1-2.31-2,13.11,13.11,0,0,1-1.78-2.61,14.47,14.47,0,0,1-1.15-3,12.42,12.42,0,0,1,.05-6.5,11,11,0,0,1,1.42-3.1,10.36,10.36,0,0,1,2.59-2.78,8.71,8.71,0,0,1,3.08-1.44,7.63,7.63,0,0,1,3.3,0,9.23,9.23,0,0,1,3.25,1.37,11.3,11.3,0,0,1,3.16,3.19,14,14,0,0,1,2,4.43,13.71,13.71,0,0,1,.32,5A11.09,11.09,0,0,1,818.14,203.43Zm-.78-1a6.73,6.73,0,0,0,1.15-3.52,8.82,8.82,0,0,0-.69-3.69,12.68,12.68,0,0,0-2.26-3.53,17.2,17.2,0,0,0-3.51-3,11.24,11.24,0,0,0-2.46-1.23,6.08,6.08,0,0,0-2.42-.36,5,5,0,0,0-2.26.72,6.25,6.25,0,0,0-2,2,6.4,6.4,0,0,0-1.12,3.69,8.78,8.78,0,0,0,.92,3.71,13.72,13.72,0,0,0,2.43,3.43,19.23,19.23,0,0,0,3.4,2.84A10.46,10.46,0,0,0,811,204.7a6.17,6.17,0,0,0,2.37.32,4.56,4.56,0,0,0,2.14-.71A6.13,6.13,0,0,0,817.36,202.43Z"/>
      <path class="cls-4" d="M829.75,183.31l-.75-.56a6.55,6.55,0,0,0,.85-2.72,2,2,0,0,0-.75-1.8L818.18,170l-.14-.09-.12-.08a.89.89,0,0,0-1.35.45l-1.26,2.39-.75-.56q.41-1.19.66-2a9.7,9.7,0,0,0,.34-1.57,8.09,8.09,0,0,0,0-1.5q0-.77-.18-1.84l.57-.62A8.13,8.13,0,0,0,817.5,166l12.91,9.79a1.16,1.16,0,0,0,.26.17q1.5.79,3.14-2.32l.77.52Z"/>
      <path class="cls-4" d="M824.19,151.3a3.35,3.35,0,0,0-.82,1.11,5.18,5.18,0,0,0-.39,2.07,7.15,7.15,0,0,0,.57,2.74,12,12,0,0,0,1.88,3.07,15.86,15.86,0,0,0,3.49,3.08q-1.27-2.54.27-5.9a4.78,4.78,0,0,1,2.52-2.63A4,4,0,0,1,835,155a9.38,9.38,0,0,1,2.9,2A7.21,7.21,0,0,1,840,162.5a8.05,8.05,0,0,1-.75,3,6.4,6.4,0,0,1-3.27,3.56,5.34,5.34,0,0,1-4.32-.29,7.16,7.16,0,0,1-.76-.41l-.76-.49a25.66,25.66,0,0,1-4.71-4,16.49,16.49,0,0,1-2.88-4.22,10.84,10.84,0,0,1-1-4.26,9.22,9.22,0,0,1,.87-4.13q1-2.22,2.45-1.57t.91,1.86q-.36.77-.92.52A1,1,0,0,1,824.19,151.3Zm14,13.43a3.57,3.57,0,0,0,.33-2,4.81,4.81,0,0,0-.69-1.9,6.71,6.71,0,0,0-1.45-1.65,9,9,0,0,0-2-1.25,3.5,3.5,0,0,0-2.77-.3,3.4,3.4,0,0,0-1.8,1.87,4.25,4.25,0,0,0-.05,3.61,6.41,6.41,0,0,0,3.44,3,5.56,5.56,0,0,0,1.43.44,3.64,3.64,0,0,0,1.39,0,3,3,0,0,0,1.22-.59A3.35,3.35,0,0,0,838.15,164.73Z"/>
    </g>
  </g>
</svg>
