<svg id="Layer_1" data-name="Layer 1" xmlns="http://www.w3.org/2000/svg" viewBox="0 0 133 133">
  <defs>
    <style>
      .cls-1 {
        fill: #9e005d;
      }

      .cls-2 {
        fill: #fff;
      }

      .cls-3 {
        font-size: 14px;
      }

      .cls-3, .cls-7 {
        fill: #0071bc;
      }

      .cls-3, .cls-4 {
        font-family: BourbonGrotesque-Regular, Bourbon Grotesque;
      }

      .cls-4 {
        font-size: 24px;
      }

      .cls-5 {
        letter-spacing: -0.02em;
      }

      .cls-6 {
        letter-spacing: 0em;
      }
    </style>
  </defs>
  <title>chip3</title>
  <g>
    <path class="cls-1" d="M130,67A63.9,63.9,0,1,1,81.77,5,64,64,0,0,1,130,67Z"/>
    <circle class="cls-2" cx="66" cy="67" r="42"/>
    <text class="cls-3" transform="translate(45.04 47.11) rotate(-25.25) scale(0.98 1)">r</text>
    <text class="cls-3" transform="translate(53.65 42.82) rotate(-10.78) scale(0.98 1)">o</text>
    <text class="cls-3" transform="translate(63.14 40.75) rotate(2.93) scale(0.98 1)">y</text>
    <text class="cls-3" transform="translate(72.13 40.89) rotate(15.63) scale(0.98 1)">a</text>
    <text class="cls-3" transform="matrix(0.85, 0.48, -0.5, 0.87, 82.73, 43.89)">l</text>
    <text class="cls-4" transform="translate(42.71 74.56)">5<tspan class="cls-5" x="16.03" y="0">0</tspan><tspan class="cls-6" x="32.26" y="0">0</tspan></text>
    <path class="cls-7" d="M25.8,79.21,4,83a64.68,64.68,0,0,1-.69-29l21.91,2.9a41.34,41.34,0,0,0-1.17,7.92l0,.61c0,.24,0,.49,0,.75s0,.54,0,.82c0,.53,0,1,0,1.49s.07,1.14.12,1.71A41.8,41.8,0,0,0,25.8,79.21Z"/>
    <path class="cls-7" d="M81.28,129.16a64.45,64.45,0,0,1-31.76-.3l3.9-21.78a42.2,42.2,0,0,0,25,0Z"/>
    <path d="M81.77,5,78,26.92a40.79,40.79,0,0,0-7.86-1.53l-.61-.06-.75,0-.81,0-1.49,0c-.59,0-1.15,0-1.72,0a41.09,41.09,0,0,0-9.07,1.31L52.87,4.35A63.85,63.85,0,0,1,66,3,64.51,64.51,0,0,1,81.77,5Z"/>
    <path class="cls-7" d="M106,54.79,128,51a64.16,64.16,0,0,1,.7,29l-22.09-2.9a41,41,0,0,0,1.18-7.92l0-.61c0-.24,0-.49,0-.75s0-.54,0-.82c0-.53,0-1,0-1.49s-.07-1.14-.12-1.71A41.49,41.49,0,0,0,106,54.79Z"/>
  </g>
</svg>
